<svg width="1200" height="1124" viewBox="0 0 1200 1124" fill="none" xmlns="http://www.w3.org/2000/svg">
<g clip-path="url(#clip0_1_5867)">
<path d="M791.786 -605.977L165.72 1.95509C74.1969 90.8276 72.0479 237.067 160.92 328.591L772.151 958.054C861.024 1049.58 1007.26 1051.73 1098.79 962.854L1724.85 354.922C1816.38 266.049 1818.52 119.809 1729.65 28.2858L1118.42 -601.177C1029.55 -692.7 883.309 -694.849 791.786 -605.977Z" fill="#9E00FF"/>
<mask id="mask0_1_5867" style="mask-type:alpha" maskUnits="userSpaceOnUse" x="95" y="-672" width="1700" height="1701">
<path d="M791.786 -605.977L165.72 1.95509C74.1969 90.8276 72.0479 237.067 160.92 328.591L772.151 958.054C861.024 1049.58 1007.26 1051.73 1098.79 962.854L1724.85 354.922C1816.38 266.049 1818.52 119.809 1729.65 28.2858L1118.42 -601.177C1029.55 -692.7 883.309 -694.849 791.786 -605.977Z" fill="#C751FF"/>
</mask>
<g mask="url(#mask0_1_5867)">
<g opacity="0.8" filter="url(#filter0_f_1_5867)">
<path d="M928.25 144.765C928.25 144.765 611.175 457.039 650.041 579.991C688.907 702.943 1287.41 911.597 1287.41 911.597L1227.23 416.287C1210.49 364.268 976.012 101.602 928.25 144.765Z" fill="url(#paint0_linear_1_5867)"/>
</g>
<g filter="url(#filter1_f_1_5867)">
<path d="M473.004 1205.8L214.373 889.895L547.161 418.059L997.438 996.75L862.374 1107.33C706.972 1234.56 532.643 1278.64 473.004 1205.8Z" fill="url(#paint1_radial_1_5867)"/>
</g>
<g opacity="0.56" filter="url(#filter2_f_1_5867)">
<path d="M803.386 171.289L787.796 -272.316L1442 -463.139L1448.42 334.071L1241.33 341.349C1003.06 349.722 806.981 273.583 803.386 171.289Z" fill="#00E1FF"/>
</g>
<g filter="url(#filter3_f_1_5867)">
<path d="M843.044 826.114L787.68 1305.76L2116.3 1459.12L1034.09 743.565C957.58 692.979 853.206 738.078 843.044 826.114Z" fill="#FFC962"/>
</g>
<g filter="url(#filter4_f_1_5867)">
<circle cx="236.188" cy="49.0859" r="300.866" fill="#BD4676"/>
<circle cx="236.188" cy="49.0859" r="300.866" fill="url(#paint2_linear_1_5867)"/>
</g>
</g>
</g>
<defs>
<filter id="filter0_f_1_5867" x="507.739" y="0.996094" width="918.669" height="1049.6" filterUnits="userSpaceOnUse" color-interpolation-filters="sRGB">
<feFlood flood-opacity="0" result="BackgroundImageFix"/>
<feBlend mode="normal" in="SourceGraphic" in2="BackgroundImageFix" result="shape"/>
<feGaussianBlur stdDeviation="69.5" result="effect1_foregroundBlur_1_5867"/>
</filter>
<filter id="filter1_f_1_5867" x="-1.62695" y="202.06" width="1215.07" height="1254.87" filterUnits="userSpaceOnUse" color-interpolation-filters="sRGB">
<feFlood flood-opacity="0" result="BackgroundImageFix"/>
<feBlend mode="normal" in="SourceGraphic" in2="BackgroundImageFix" result="shape"/>
<feGaussianBlur stdDeviation="108" result="effect1_foregroundBlur_1_5867"/>
</filter>
<filter id="filter2_f_1_5867" x="587.796" y="-663.139" width="1060.62" height="1205.12" filterUnits="userSpaceOnUse" color-interpolation-filters="sRGB">
<feFlood flood-opacity="0" result="BackgroundImageFix"/>
<feBlend mode="normal" in="SourceGraphic" in2="BackgroundImageFix" result="shape"/>
<feGaussianBlur stdDeviation="100" result="effect1_foregroundBlur_1_5867"/>
</filter>
<filter id="filter3_f_1_5867" x="587.681" y="522.408" width="1728.62" height="1136.71" filterUnits="userSpaceOnUse" color-interpolation-filters="sRGB">
<feFlood flood-opacity="0" result="BackgroundImageFix"/>
<feBlend mode="normal" in="SourceGraphic" in2="BackgroundImageFix" result="shape"/>
<feGaussianBlur stdDeviation="100" result="effect1_foregroundBlur_1_5867"/>
</filter>
<filter id="filter4_f_1_5867" x="-364.678" y="-551.78" width="1201.73" height="1201.73" filterUnits="userSpaceOnUse" color-interpolation-filters="sRGB">
<feFlood flood-opacity="0" result="BackgroundImageFix"/>
<feBlend mode="normal" in="SourceGraphic" in2="BackgroundImageFix" result="shape"/>
<feGaussianBlur stdDeviation="150" result="effect1_foregroundBlur_1_5867"/>
</filter>
<linearGradient id="paint0_linear_1_5867" x1="992.789" y1="398.012" x2="760.002" y2="671.328" gradientUnits="userSpaceOnUse">
<stop stop-color="#FF0000"/>
<stop offset="1" stop-color="#FE405C"/>
</linearGradient>
<radialGradient id="paint1_radial_1_5867" cx="0" cy="0" r="1" gradientUnits="userSpaceOnUse" gradientTransform="translate(564.076 877.878) rotate(-39.3074) scale(278.198 366.504)">
<stop stop-color="#FAFF00"/>
<stop offset="1" stop-color="#61FF00"/>
</radialGradient>
<linearGradient id="paint2_linear_1_5867" x1="228.631" y1="-117.25" x2="228.631" y2="180.734" gradientUnits="userSpaceOnUse">
<stop stop-color="#F6532F"/>
<stop offset="1" stop-color="#572FF6"/>
</linearGradient>
<clipPath id="clip0_1_5867">
<rect width="1200" height="1123.77" fill="white"/>
</clipPath>
</defs>
</svg>
