<svg width="1039" height="973" viewBox="0 0 1039 973" fill="none" xmlns="http://www.w3.org/2000/svg">
<g clip-path="url(#clip0_1_5867)">
<path d="M685.554 -524.674L143.486 1.69335C64.2419 78.6422 62.3813 205.261 139.33 284.506L668.554 829.515C745.503 908.759 872.122 910.62 951.366 833.671L1493.43 307.304C1572.68 230.355 1574.54 103.735 1497.59 24.4914L968.367 -520.518C891.418 -599.763 764.798 -601.623 685.554 -524.674Z" fill="#AD99FF"/>
<mask id="mask0_1_5867" style="mask-type:alpha" maskUnits="userSpaceOnUse" x="82" y="-582" width="1473" height="1473">
<path d="M685.554 -524.674L143.486 1.69335C64.2419 78.6422 62.3813 205.261 139.33 284.506L668.554 829.515C745.503 908.759 872.122 910.62 951.366 833.671L1493.43 307.304C1572.68 230.355 1574.54 103.735 1497.59 24.4914L968.367 -520.518C891.418 -599.763 764.798 -601.623 685.554 -524.674Z" fill="#C751FF"/>
</mask>
<g mask="url(#mask0_1_5867)">
<g filter="url(#filter0_f_1_5867)">
<path d="M96.9965 0.501373L467.997 748.501L910.497 1028.5L1131 713.001L405.996 -181.499C324.591 -191.145 56.5355 -70.792 96.9965 0.501373Z" fill="url(#paint0_linear_1_5867)"/>
</g>
<g opacity="0.8" filter="url(#filter1_f_1_5867)">
<path d="M1046.3 -196.582C1046.3 -196.582 710.936 171.591 758.988 323.603C807.04 475.615 1474.44 756.524 1474.44 756.524L1386.89 148.296C1366.25 83.9701 1096.98 -247.302 1046.3 -196.582Z" fill="url(#paint1_linear_1_5867)"/>
</g>
<g opacity="0.56" filter="url(#filter2_f_1_5867)">
<path d="M465.286 332.009L334.117 693.258L-252.996 634.58L0.0730471 -7.63011L168.716 53.6039C362.753 124.059 495.533 248.706 465.286 332.009Z" fill="#00E1FF"/>
</g>
<g filter="url(#filter3_f_1_5867)">
<path d="M713.548 191.049L489.617 -82.4688L777.755 -491L1167.62 10.0491L1050.68 105.791C916.125 215.95 765.185 254.122 713.548 191.049Z" fill="url(#paint2_radial_1_5867)"/>
</g>
<g filter="url(#filter4_f_1_5867)">
<path d="M604.936 749.277L557 1164.57L1707.36 1297.35L770.347 677.803C704.105 634.004 613.734 673.052 604.936 749.277Z" fill="#FFC962"/>
</g>
</g>
</g>
<defs>
<filter id="filter0_f_1_5867" x="-3.13525" y="-278.045" width="1230.13" height="1402.55" filterUnits="userSpaceOnUse" color-interpolation-filters="sRGB">
<feFlood flood-opacity="0" result="BackgroundImageFix"/>
<feBlend mode="normal" in="SourceGraphic" in2="BackgroundImageFix" result="shape"/>
<feGaussianBlur stdDeviation="48" result="effect1_foregroundBlur_1_5867"/>
</filter>
<filter id="filter1_f_1_5867" x="615.277" y="-340.841" width="998.16" height="1236.36" filterUnits="userSpaceOnUse" color-interpolation-filters="sRGB">
<feFlood flood-opacity="0" result="BackgroundImageFix"/>
<feBlend mode="normal" in="SourceGraphic" in2="BackgroundImageFix" result="shape"/>
<feGaussianBlur stdDeviation="69.5" result="effect1_foregroundBlur_1_5867"/>
</filter>
<filter id="filter2_f_1_5867" x="-348.996" y="-103.63" width="914.576" height="892.888" filterUnits="userSpaceOnUse" color-interpolation-filters="sRGB">
<feFlood flood-opacity="0" result="BackgroundImageFix"/>
<feBlend mode="normal" in="SourceGraphic" in2="BackgroundImageFix" result="shape"/>
<feGaussianBlur stdDeviation="48" result="effect1_foregroundBlur_1_5867"/>
</filter>
<filter id="filter3_f_1_5867" x="273.617" y="-707" width="1110" height="1144.47" filterUnits="userSpaceOnUse" color-interpolation-filters="sRGB">
<feFlood flood-opacity="0" result="BackgroundImageFix"/>
<feBlend mode="normal" in="SourceGraphic" in2="BackgroundImageFix" result="shape"/>
<feGaussianBlur stdDeviation="108" result="effect1_foregroundBlur_1_5867"/>
</filter>
<filter id="filter4_f_1_5867" x="357" y="459.484" width="1550.36" height="1037.87" filterUnits="userSpaceOnUse" color-interpolation-filters="sRGB">
<feFlood flood-opacity="0" result="BackgroundImageFix"/>
<feBlend mode="normal" in="SourceGraphic" in2="BackgroundImageFix" result="shape"/>
<feGaussianBlur stdDeviation="100" result="effect1_foregroundBlur_1_5867"/>
</filter>
<linearGradient id="paint0_linear_1_5867" x1="598.893" y1="88.5985" x2="598.893" y2="688.072" gradientUnits="userSpaceOnUse">
<stop stop-color="#F6532F"/>
<stop offset="1" stop-color="#572FF6"/>
</linearGradient>
<linearGradient id="paint1_linear_1_5867" x1="1128.21" y1="115.853" x2="849.891" y2="407.585" gradientUnits="userSpaceOnUse">
<stop stop-color="#FF0000"/>
<stop offset="1" stop-color="#FE405C"/>
</linearGradient>
<radialGradient id="paint2_radial_1_5867" cx="0" cy="0" r="1" gradientUnits="userSpaceOnUse" gradientTransform="translate(792.401 -92.8736) rotate(-39.3074) scale(240.873 317.332)">
<stop stop-color="#FAFF00"/>
<stop offset="1" stop-color="#61FF00"/>
</radialGradient>
<clipPath id="clip0_1_5867">
<rect width="1039" height="973" fill="white"/>
</clipPath>
</defs>
</svg>
